<svg width="22" height="23" viewBox="0 0 22 23" fill="none" xmlns="http://www.w3.org/2000/svg">
<g clip-path="url(#clip0_205_3)">
<path fill-rule="evenodd" clip-rule="evenodd" d="M0 3.86932C0 1.73235 1.6527 0 3.6914 0H17.7187C19.7574 0 21.4101 1.73235 21.4101 3.86932V16.3746C21.4101 18.5854 18.7411 19.5449 17.4467 17.7994L13.3998 12.3427V18.9597C13.3998 20.883 11.9124 22.4421 10.0775 22.4421H3.6914C1.6527 22.4421 0 20.7097 0 18.5728V3.86932ZM3.6914 3.09546C3.28366 3.09546 2.95312 3.44193 2.95312 3.86932V18.5728C2.95312 19.0001 3.28366 19.3466 3.6914 19.3466H10.1883C10.3921 19.3466 10.4467 19.1734 10.4467 18.9597V10.0863C10.4467 7.87547 13.1157 6.91596 14.4101 8.66142L18.457 14.1182V3.86932C18.457 3.44193 18.4956 3.09546 18.0879 3.09546H3.6914Z" fill="#00E0D9"/>
<path fill-rule="evenodd" clip-rule="evenodd" d="M0 3.86932C0 1.73235 1.6527 0 3.6914 0H17.7187C19.7574 0 21.4101 1.73235 21.4101 3.86932V16.3746C21.4101 18.5854 18.7411 19.5449 17.4467 17.7994L13.3998 12.3427V18.9597C13.3998 20.883 11.9124 22.4421 10.0775 22.4421H3.6914C1.6527 22.4421 0 20.7097 0 18.5728V3.86932ZM3.6914 3.09546C3.28366 3.09546 2.95312 3.44193 2.95312 3.86932V18.5728C2.95312 19.0001 3.28366 19.3466 3.6914 19.3466H10.1883C10.3921 19.3466 10.4467 19.1734 10.4467 18.9597V10.0863C10.4467 7.87547 13.1157 6.91596 14.4101 8.66142L18.457 14.1182V3.86932C18.457 3.44193 18.4956 3.09546 18.0879 3.09546H3.6914Z" fill="url(#paint0_linear_205_3)"/>
<path fill-rule="evenodd" clip-rule="evenodd" d="M0 3.86932C0 1.73235 1.6527 0 3.6914 0H17.7187C19.7574 0 21.4101 1.73235 21.4101 3.86932V16.3746C21.4101 18.5854 18.7411 19.5449 17.4467 17.7994L13.3998 12.3427V18.9597C13.3998 20.883 11.9124 22.4421 10.0775 22.4421H3.6914C1.6527 22.4421 0 20.7097 0 18.5728V3.86932ZM3.6914 3.09546C3.28366 3.09546 2.95312 3.44193 2.95312 3.86932V18.5728C2.95312 19.0001 3.28366 19.3466 3.6914 19.3466H10.1883C10.3921 19.3466 10.4467 19.1734 10.4467 18.9597V10.0863C10.4467 7.87547 13.1157 6.91596 14.4101 8.66142L18.457 14.1182V3.86932C18.457 3.44193 18.4956 3.09546 18.0879 3.09546H3.6914Z" fill="url(#paint1_linear_205_3)" fill-opacity="0.4"/>
<path d="M17.7186 0C19.7573 0 21.41 1.73235 21.41 3.86932V16.3746C21.41 18.5854 18.741 19.5449 17.4465 17.7994L13.3997 12.3427V18.9597C13.3997 20.883 11.9122 22.4421 10.0774 22.4421C10.2813 22.4421 10.4465 22.2688 10.4465 22.0551V10.0863C10.4465 7.87547 13.1155 6.91596 14.41 8.66142L18.4569 14.1182V0.773865C18.4569 0.346471 18.1263 0 17.7186 0Z" fill="#63F655"/>
</g>
<defs>
<linearGradient id="paint0_linear_205_3" x1="21.4101" y1="22.4421" x2="1.57912" y2="0.926191" gradientUnits="userSpaceOnUse">
<stop stop-color="#62F755"/>
<stop offset="1" stop-color="#8FF986" stop-opacity="0"/>
</linearGradient>
<linearGradient id="paint1_linear_205_3" x1="21.4101" y1="22.4421" x2="8.5413" y2="17.6667" gradientUnits="userSpaceOnUse">
<stop stop-opacity="0.9"/>
<stop offset="1" stop-color="#1A1A1A" stop-opacity="0"/>
</linearGradient>
<clipPath id="clip0_205_3">
<rect width="22" height="23" fill="white"/>
</clipPath>
</defs>
</svg>
